<svg width="500" height="500" viewBox="0 0 500 500" fill="none" xmlns="http://www.w3.org/2000/svg">
<mask id="mask0_3877_1074" style="mask-type:luminance" maskUnits="userSpaceOnUse" x="0" y="0" width="500" height="500">
<path d="M500 0H0V500H500V0Z" fill="white"/>
</mask>
<g mask="url(#mask0_3877_1074)">
<mask id="mask1_3877_1074" style="mask-type:luminance" maskUnits="userSpaceOnUse" x="0" y="0" width="500" height="500">
<path d="M0 0H500V500H0V0Z" fill="white"/>
</mask>
<g mask="url(#mask1_3877_1074)">
<path d="M349.734 81.2606C437.142 143.071 467.942 235.038 408.259 341.196C368 426.118 302.899 449.099 201.361 448.24C92.9169 445.532 45.3005 276.874 129.623 180.498C190.704 118.193 259.107 15.7448 349.734 81.2606Z" stroke="#0161A1" stroke-opacity="0.1" stroke-width="2"/>
<g opacity="0.61">
<path d="M361.262 88.6287C444.146 156.386 468.455 250.277 401.512 352.013C355.427 433.92 288.882 452.304 187.651 444.365C79.66 434.098 43.9244 262.53 134.765 172.271C200.043 114.377 275.426 16.9506 361.262 88.6287Z" stroke="#0161A1" stroke-opacity="0.1" stroke-width="2"/>
</g>
<g opacity="0.35">
<path d="M369.555 94.673C448.779 166.675 468.141 261.71 395.965 359.803C345.657 439.186 278.241 454.062 177.564 440.835C70.2584 424.931 43.551 251.727 138.991 166.346C207.21 111.949 287.588 18.6008 369.555 94.673Z" stroke="#0161A1" stroke-opacity="0.1" stroke-width="2"/>
</g>
<path d="M447.463 261.261C432.072 367.203 345.138 436.116 241.471 446.731C145.379 454.159 87.3385 389.57 53.1215 295.664C18.9775 198.389 128.722 50.459 259.113 110.194C350.716 152.213 464.694 150.768 447.463 261.261Z" stroke="#0161A1" stroke-opacity="0.1" stroke-width="2"/>
<g opacity="0.68">
<path d="M446.197 275.008C423.453 379.619 331.924 442.3 227.769 445.658C131.392 446.364 77.9989 377.884 50.4158 281.82C23.1405 182.4 142.937 42.4855 268.844 111.17C357.292 159.477 471.093 165.986 446.197 275.008Z" stroke="#0161A1" stroke-opacity="0.1" stroke-width="2"/>
</g>
<g opacity="0.32">
<path d="M443.271 292.012C411.496 394.243 314.852 448.708 210.801 442.975C114.729 435.279 67.5075 362.406 48.402 264.303C29.8955 162.884 161.43 33.9436 280.872 113.34C364.773 169.172 477.574 185.575 443.271 292.012Z" stroke="#0161A1" stroke-opacity="0.1" stroke-width="2"/>
</g>
<path d="M170.618 434.149C77.2273 381.814 61.0461 278.883 72.6782 171.277C84.6069 64.1979 194.338 48.8734 294.269 50.582C397.32 53.5661 489.078 215.235 357.515 302.707C267.43 362.291 267.597 489.833 170.618 434.149Z" stroke="#0161A1" stroke-opacity="0.1" stroke-width="2"/>
<g opacity="0.5">
<path d="M157.965 428.163C68.4534 369.44 59.4917 265.631 78.6016 159.099C97.9708 53.113 208.504 45.4803 308.072 54.1555C410.663 64.3208 490.921 231.997 353.576 310.078C259.555 363.233 250.824 490.476 157.965 428.163Z" stroke="#0161A1" stroke-opacity="0.1" stroke-width="2"/>
</g>
<g opacity="0.29">
<path d="M141.313 418.522C57.8415 351.49 58.8707 247.3 88.1032 143.09C117.541 39.4482 228.297 42.4447 326.576 60.6232C427.72 80.5746 491.537 255.171 347.341 319.729C248.658 363.627 227.772 489.448 141.313 418.522Z" stroke="#0161A1" stroke-opacity="0.1" stroke-width="2"/>
</g>
</g>
<mask id="mask2_3877_1074" style="mask-type:luminance" maskUnits="userSpaceOnUse" x="-76" y="-76" width="652" height="652">
<path d="M388.144 575.447L575.448 111.855L111.856 -75.448L-75.4476 388.144L388.144 575.447Z" fill="white"/>
</mask>
<g mask="url(#mask2_3877_1074)">
<g opacity="0.16">
<path d="M443.814 220.738C419.247 116.54 345.515 53.5318 224.73 69.1017C130.91 74.6171 85.215 126.369 47.9741 220.835C9.86169 322.397 148.401 429.726 269.347 387.647C349.997 354.353 470.609 329.309 443.814 220.738Z" stroke="#0161A1" stroke-opacity="0.1" stroke-width="2"/>
<g opacity="0.61">
<path d="M441.301 207.29C409.526 105.059 331.578 47.3478 212.172 71.3053C118.966 83.3518 76.9924 138.165 46.4319 234.999C15.4969 338.972 161.185 436.376 278.902 385.962C357.033 347.124 475.604 313.727 441.301 207.29Z" stroke="#0161A1" stroke-opacity="0.1" stroke-width="2"/>
</g>
<g opacity="0.35">
<path d="M438.803 197.337C401.721 96.9092 320.86 43.3561 202.872 73.53C110.424 90.4381 71.3765 147.373 45.9258 245.673C20.4748 351.123 171.061 440.769 285.978 384.263C361.97 341.389 478.63 301.833 438.803 197.337Z" stroke="#0161A1" stroke-opacity="0.1" stroke-width="2"/>
</g>
<path d="M313.53 62.6968C209.536 37.2806 113.075 92.0691 64.3991 184.211C21.5157 270.524 59.6589 348.533 133.909 415.436C211.311 483.534 389.58 437.196 383.04 293.923C378.396 193.25 422.433 88.1118 313.53 62.6968Z" stroke="#0161A1" stroke-opacity="0.1" stroke-width="2"/>
<g opacity="0.68">
<path d="M300.31 58.7214C194.796 40.6214 102.392 102.005 60.262 197.318C23.5041 286.412 66.9959 361.571 145.732 423.131C227.695 485.664 402.298 427.004 385.78 284.535C374.124 184.431 410.72 76.4779 300.31 58.7214Z" stroke="#0161A1" stroke-opacity="0.1" stroke-width="2"/>
</g>
<g opacity="0.32">
<path d="M283.447 55.0643C176.758 46.2293 90.0554 115.433 56.3924 214.055C27.5394 306.014 77.4163 377.096 161.218 431.56C248.32 486.711 417.145 413.056 388.273 272.569C367.937 173.863 394.985 63.1304 283.447 55.0643Z" stroke="#0161A1" stroke-opacity="0.1" stroke-width="2"/>
</g>
<path d="M49.5229 254.618C63.063 360.813 152.437 414.375 256.565 443.899C360.316 472.952 415.63 376.952 451.481 283.657C487.317 186.993 371.794 41.3532 241.407 130.569C152.415 191.774 34.2228 143.841 49.5229 254.618Z" stroke="#0161A1" stroke-opacity="0.1" stroke-width="2"/>
<g opacity="0.5">
<path d="M50.3334 268.592C71.2483 373.584 164.141 420.78 270.074 442.969C375.599 464.714 424.082 365.089 453.338 269.521C482.344 170.592 356.942 33.3658 233.097 131.46C148.591 198.723 27.3432 159.152 50.3334 268.592Z" stroke="#0161A1" stroke-opacity="0.1" stroke-width="2"/>
</g>
<g opacity="0.29">
<path d="M53.0346 287.643C83.9162 390.147 180.905 428.223 288.477 440.157C395.6 451.687 434.312 347.874 454.273 249.942C473.664 148.688 335.687 24.113 221.813 133.625C144.144 208.678 19.6609 180.91 53.0346 287.643Z" stroke="#0161A1" stroke-opacity="0.1" stroke-width="2"/>
</g>
</g>
</g>
<mask id="mask3_3877_1074" style="mask-type:luminance" maskUnits="userSpaceOnUse" x="0" y="0" width="500" height="500">
<path d="M0 0H500V500H0V0Z" fill="white"/>
</mask>
<g mask="url(#mask3_3877_1074)">
<mask id="mask4_3877_1074" style="mask-type:luminance" maskUnits="userSpaceOnUse" x="0" y="0" width="500" height="500">
<path d="M0 0H500V500H0V0Z" fill="white"/>
</mask>
<g mask="url(#mask4_3877_1074)">
<path d="M228.345 239.289C228.956 239.289 229.452 239.785 229.452 240.396C229.452 241.006 228.956 241.502 228.345 241.502C227.734 241.502 227.238 241.006 227.238 240.396C227.238 239.785 227.734 239.289 228.345 239.289Z" fill="#0161A1" fill-opacity="0.1"/>
<path d="M238.459 251.964C239.07 251.964 239.566 252.46 239.566 253.071C239.566 253.682 239.07 254.178 238.459 254.178C237.848 254.178 237.352 253.682 237.352 253.071C237.352 252.46 237.848 251.964 238.459 251.964Z" fill="#0161A1" fill-opacity="0.1"/>
<path d="M245.966 266.466C246.577 266.466 247.073 266.962 247.073 267.573C247.073 268.184 246.577 268.68 245.966 268.68C245.356 268.68 244.859 268.184 244.859 267.573C244.859 266.962 245.356 266.466 245.966 266.466Z" fill="#0161A1" fill-opacity="0.1"/>
</g>
<mask id="mask5_3877_1074" style="mask-type:luminance" maskUnits="userSpaceOnUse" x="62" y="62" width="376" height="376">
<path d="M314.459 62.7969L437.203 314.459L185.541 437.203L62.7969 185.541L314.459 62.7969Z" fill="white"/>
</mask>
<g mask="url(#mask5_3877_1074)">
<path d="M248.396 239.628C248.486 239.814 248.409 240.038 248.223 240.128C248.038 240.219 247.814 240.142 247.723 239.956C247.633 239.771 247.71 239.546 247.895 239.456C248.081 239.365 248.305 239.443 248.396 239.628Z" fill="#0161A1" fill-opacity="0.1"/>
<path d="M244.93 246.453C245.021 246.639 244.944 246.863 244.758 246.954C244.573 247.044 244.349 246.967 244.258 246.781C244.168 246.596 244.245 246.372 244.43 246.281C244.616 246.191 244.84 246.268 244.93 246.453Z" fill="#0161A1" fill-opacity="0.1"/>
<path d="M241.869 250.766C241.959 250.952 241.882 251.176 241.697 251.267C241.511 251.357 241.287 251.28 241.197 251.094C241.106 250.909 241.183 250.685 241.369 250.594C241.554 250.504 241.778 250.581 241.869 250.766Z" fill="#0161A1" fill-opacity="0.1"/>
</g>
<mask id="mask6_3877_1074" style="mask-type:luminance" maskUnits="userSpaceOnUse" x="-19" y="-19" width="538" height="538">
<path d="M240.623 -18.5371L518.537 240.622L259.378 518.537L-18.5368 259.377L240.623 -18.5371Z" fill="white"/>
</mask>
<g mask="url(#mask6_3877_1074)">
<g opacity="0.37">
<mask id="mask7_3877_1074" style="mask-type:luminance" maskUnits="userSpaceOnUse" x="-19" y="-19" width="538" height="538">
<path d="M240.623 -18.5371L518.537 240.622L259.378 518.537L-18.5368 259.377L240.623 -18.5371Z" fill="white"/>
</mask>
<g mask="url(#mask7_3877_1074)">
<path d="M241.183 250.156C241.187 250.16 241.187 250.166 241.183 250.169C241.18 250.173 241.174 250.173 241.17 250.17C241.166 250.166 241.166 250.16 241.169 250.156C241.173 250.153 241.179 250.152 241.183 250.156Z" fill="#0161A1" fill-opacity="0.1"/>
<path d="M240.942 251.862C240.946 251.866 240.946 251.872 240.942 251.876C240.939 251.88 240.933 251.88 240.929 251.876C240.925 251.873 240.925 251.867 240.928 251.863C240.932 251.859 240.938 251.859 240.942 251.862Z" fill="#0161A1" fill-opacity="0.1"/>
<path d="M240.914 251.981C240.918 251.984 240.918 251.99 240.915 251.994C240.911 251.998 240.905 251.998 240.901 251.995C240.897 251.991 240.897 251.985 240.901 251.981C240.904 251.977 240.91 251.977 240.914 251.981Z" fill="#0161A1" fill-opacity="0.1"/>
</g>
<mask id="mask8_3877_1074" style="mask-type:luminance" maskUnits="userSpaceOnUse" x="117" y="117" width="266" height="266">
<path d="M382.859 179.357L320.643 382.859L117.141 320.642L179.358 117.141L382.859 179.357Z" fill="white"/>
</mask>
<g mask="url(#mask8_3877_1074)">
<path d="M247.757 245.6C247.756 245.603 247.753 245.605 247.75 245.604C247.748 245.603 247.746 245.6 247.747 245.597C247.748 245.594 247.751 245.593 247.753 245.594C247.756 245.595 247.758 245.598 247.757 245.6Z" fill="#0161A1" fill-opacity="0.1"/>
<path d="M246.839 245.898C246.838 245.901 246.835 245.902 246.832 245.901C246.83 245.9 246.828 245.897 246.829 245.895C246.83 245.892 246.833 245.89 246.835 245.891C246.838 245.892 246.84 245.895 246.839 245.898Z" fill="#0161A1" fill-opacity="0.1"/>
<path d="M246.772 245.913C246.772 245.916 246.769 245.918 246.766 245.917C246.763 245.916 246.761 245.913 246.762 245.91C246.763 245.907 246.766 245.906 246.769 245.907C246.772 245.908 246.773 245.91 246.772 245.913Z" fill="#0161A1" fill-opacity="0.1"/>
</g>
</g>
</g>
</g>
<mask id="mask9_3877_1074" style="mask-type:luminance" maskUnits="userSpaceOnUse" x="-260" y="-260" width="1020" height="1020">
<path d="M303.587 -259.844L759.844 303.587L196.413 759.844L-259.844 196.413L303.587 -259.844Z" fill="white"/>
</mask>
<g mask="url(#mask9_3877_1074)">
<g opacity="0.22">
<mask id="mask10_3877_1074" style="mask-type:luminance" maskUnits="userSpaceOnUse" x="-260" y="-260" width="1020" height="1020">
<path d="M303.587 -259.844L759.844 303.587L196.413 759.844L-259.844 196.413L303.587 -259.844Z" fill="white"/>
</mask>
<g mask="url(#mask10_3877_1074)">
<path d="M242.31 215.823C242.867 216.511 242.761 217.523 242.073 218.08C241.384 218.638 240.373 218.532 239.815 217.843C239.258 217.155 239.364 216.143 240.052 215.586C240.741 215.028 241.752 215.135 242.31 215.823Z" fill="#0161A1" fill-opacity="0.1"/>
<path d="M237.256 238.787C237.813 239.475 237.707 240.487 237.019 241.044C236.33 241.602 235.319 241.496 234.761 240.807C234.204 240.119 234.31 239.107 234.998 238.55C235.687 237.992 236.698 238.098 237.256 238.787Z" fill="#0161A1" fill-opacity="0.1"/>
<path d="M227.765 260.48C228.322 261.168 228.216 262.18 227.528 262.737C226.839 263.295 225.828 263.188 225.27 262.5C224.713 261.812 224.819 260.8 225.508 260.243C226.196 259.685 227.208 259.791 227.765 260.48Z" fill="#0161A1" fill-opacity="0.1"/>
</g>
<mask id="mask11_3877_1074" style="mask-type:luminance" maskUnits="userSpaceOnUse" x="-20" y="-20" width="540" height="540">
<path d="M519.772 151.811L348.189 519.772L-19.7721 348.189L151.811 -19.772L519.772 151.811Z" fill="white"/>
</mask>
<g mask="url(#mask11_3877_1074)">
<path d="M260.223 238.727C260.097 238.999 259.774 239.116 259.503 238.99C259.231 238.863 259.114 238.54 259.24 238.269C259.367 237.998 259.69 237.88 259.961 238.007C260.232 238.133 260.35 238.456 260.223 238.727Z" fill="#0161A1" fill-opacity="0.1"/>
<path d="M249.371 241.051C249.244 241.322 248.921 241.44 248.65 241.313C248.378 241.186 248.261 240.864 248.387 240.592C248.514 240.321 248.837 240.203 249.108 240.33C249.379 240.456 249.497 240.779 249.371 241.051Z" fill="#0161A1" fill-opacity="0.1"/>
<path d="M241.716 241.536C241.59 241.808 241.267 241.925 240.996 241.799C240.724 241.672 240.607 241.349 240.733 241.078C240.86 240.807 241.183 240.689 241.454 240.816C241.725 240.942 241.843 241.265 241.716 241.536Z" fill="#0161A1" fill-opacity="0.1"/>
</g>
<mask id="mask12_3877_1074" style="mask-type:luminance" maskUnits="userSpaceOnUse" x="-45" y="-45" width="590" height="590">
<path d="M544.047 -5.61133L505.611 544.046L-44.0469 505.611L-5.61105 -44.0472L544.047 -5.61133Z" fill="white"/>
</mask>
<g mask="url(#mask12_3877_1074)">
<g opacity="0.37">
<mask id="mask13_3877_1074" style="mask-type:luminance" maskUnits="userSpaceOnUse" x="-45" y="-45" width="590" height="590">
<path d="M544.047 -5.61133L505.611 544.046L-44.0469 505.611L-5.61105 -44.0472L544.047 -5.61133Z" fill="white"/>
</mask>
<g mask="url(#mask13_3877_1074)">
<path d="M241.778 240.206C241.778 240.214 241.771 240.22 241.763 240.219C241.756 240.218 241.75 240.212 241.751 240.204C241.751 240.197 241.758 240.191 241.765 240.191C241.773 240.192 241.779 240.199 241.778 240.206Z" fill="#0161A1" fill-opacity="0.1"/>
<path d="M239.636 241.492C239.635 241.499 239.628 241.505 239.621 241.505C239.613 241.504 239.607 241.497 239.608 241.49C239.608 241.482 239.615 241.477 239.623 241.477C239.63 241.478 239.636 241.484 239.636 241.492Z" fill="#0161A1" fill-opacity="0.1"/>
<path d="M239.477 241.569C239.476 241.577 239.469 241.582 239.462 241.582C239.454 241.581 239.448 241.575 239.449 241.567C239.45 241.559 239.456 241.554 239.464 241.554C239.471 241.555 239.477 241.561 239.477 241.569Z" fill="#0161A1" fill-opacity="0.1"/>
</g>
<mask id="mask14_3877_1074" style="mask-type:luminance" maskUnits="userSpaceOnUse" x="49" y="49" width="402" height="402">
<path d="M450.84 335.251L164.748 450.84L49.1597 164.748L335.252 49.1596L450.84 335.251Z" fill="white"/>
</mask>
<g mask="url(#mask14_3877_1074)">
<path d="M252.911 243.457C252.907 243.459 252.902 243.457 252.901 243.453C252.899 243.449 252.901 243.445 252.905 243.443C252.909 243.442 252.913 243.443 252.915 243.447C252.917 243.451 252.915 243.456 252.911 243.457Z" fill="#0161A1" fill-opacity="0.1"/>
<path d="M251.738 242.695C251.734 242.696 251.729 242.694 251.728 242.691C251.726 242.687 251.728 242.682 251.732 242.68C251.736 242.679 251.74 242.681 251.742 242.685C251.744 242.689 251.742 242.693 251.738 242.695Z" fill="#0161A1" fill-opacity="0.1"/>
<path d="M251.66 242.634C251.656 242.635 251.651 242.633 251.65 242.629C251.648 242.626 251.65 242.621 251.654 242.619C251.658 242.618 251.663 242.62 251.664 242.624C251.666 242.628 251.664 242.632 251.66 242.634Z" fill="#0161A1" fill-opacity="0.1"/>
</g>
</g>
</g>
</g>
</g>
</g>
</svg>
