<svg width="137" height="40" viewBox="0 0 137 40" fill="none" xmlns="http://www.w3.org/2000/svg">
<g clip-path="url(#clip0_3954_383)">
<path d="M25.2489 0.750244L23.4223 11.1152C23.3245 11.6688 23.1067 12.1942 22.7841 12.6546C22.4615 13.1151 22.042 13.4992 21.5551 13.7802L17.3052 16.2335L20.0322 0.750244H25.2489Z" fill="white"/>
<path d="M21.1895 23.7709L18.4603 39.2498H13.25L15.0744 28.8892C15.1715 28.3356 15.3885 27.8099 15.7104 27.3491C16.0322 26.8884 16.451 26.5036 16.9374 26.222L21.1895 23.7709Z" fill="white"/>
<path d="M36.5746 14.886L27.7154 20L36.5746 25.1161C37.1599 25.4541 37.646 25.9401 37.9839 26.5254C38.3218 27.1108 38.4996 27.7748 38.4996 28.4506V32.153L25.1488 24.4531C24.3684 24.0026 23.7204 23.3545 23.2698 22.5742C22.8192 21.7938 22.582 20.9086 22.582 20.0075C22.582 19.1064 22.8192 18.2211 23.2698 17.4408C23.7204 16.6604 24.3684 16.0124 25.1488 15.5618L38.4996 7.86194V11.5664C38.497 12.2398 38.3179 12.9007 37.9801 13.4831C37.6424 14.0656 37.1577 14.5493 36.5746 14.886Z" fill="white"/>
<path d="M15.9087 20C15.9142 20.9023 15.6793 21.7898 15.2283 22.5713C14.7772 23.3528 14.1262 24.0001 13.3421 24.4467L-0.00439452 32.1466V28.4485C-0.00445244 27.7726 0.173413 27.1087 0.51132 26.5233C0.849226 25.938 1.33527 25.4519 1.92058 25.114L10.7755 20L1.92058 14.8881C1.33527 14.5502 0.849226 14.0641 0.51132 13.4788C0.173413 12.8935 -0.00445244 12.2295 -0.00439452 11.5536V7.84485L13.3421 15.5447C14.1279 15.9915 14.7801 16.6401 15.2313 17.4233C15.6825 18.2066 15.9164 19.0961 15.9087 20Z" fill="white"/>
<path d="M52.355 22.6971H55.5055C55.9718 24.3676 57.2038 25.1354 59.8046 25.1354C61.8045 25.1354 63.0365 24.5323 63.0365 23.4094C63.0365 22.1496 61.612 21.9592 59.0924 21.356C54.8746 20.3166 53.1036 19.4674 53.1036 16.9479C53.1036 13.9085 55.6702 12.1547 59.456 12.1547C63.3188 12.1547 65.4812 13.9898 66.0287 16.7276H62.8996C62.4718 15.4956 61.3104 14.8946 59.394 14.8946C57.3941 14.8946 56.2178 15.579 56.2178 16.6185C56.2178 17.5767 57.1482 17.8226 59.7768 18.4536C63.8578 19.4118 66.2127 20.1241 66.2127 23.0543C66.2127 26.284 63.3102 27.8454 59.749 27.8454C55.7793 27.8454 52.9325 25.9567 52.355 22.6971Z" fill="white"/>
<path d="M68.0562 20.0363C68.0562 15.4891 71.2858 12.1482 75.833 12.1482C80.6797 12.1482 83.7468 15.8998 83.4452 20.8576H71.2324C71.4462 23.6232 73.3947 25.1567 75.9143 25.1567C77.7217 25.1567 79.2274 24.3889 79.9397 22.9109H83.1479C81.9716 26.2775 79.0841 27.8303 75.8908 27.8303C71.3051 27.8453 68.0562 24.5878 68.0562 20.0363ZM80.1322 18.3381C79.6659 16.2569 78.1323 14.8325 75.833 14.8325C73.4803 14.8325 71.889 16.2826 71.397 18.3381H80.1322Z" fill="white"/>
<path d="M85.4092 20.015C85.4092 15.5234 88.7501 12.1547 93.2417 12.1547C96.8008 12.1547 99.9492 14.3192 100.634 17.9617H97.4253C96.85 16.0709 95.1795 15.0314 93.2374 15.0314C90.4441 15.0314 88.5319 17.1126 88.5319 20.015C88.5319 22.9174 90.5039 24.9985 93.216 24.9985C95.1859 24.9985 96.8521 23.9034 97.4317 22.0405H100.64C99.9278 25.7642 96.7516 27.8732 93.2203 27.8732C88.7501 27.8732 85.4092 24.5045 85.4092 20.015Z" fill="white"/>
<path d="M118.05 20.015C118.05 24.5323 114.628 27.8454 110.246 27.8454C105.863 27.8454 102.441 24.5045 102.441 20.015C102.441 15.4699 105.947 12.1547 110.246 12.1547C114.545 12.1547 118.05 15.4699 118.05 20.015ZM105.564 20.015C105.564 22.9174 107.617 24.9151 110.246 24.9151C112.874 24.9151 114.928 22.9174 114.928 20.015C114.928 17.1125 112.846 15.117 110.246 15.117C107.645 15.117 105.564 17.1125 105.564 20.015Z" fill="white"/>
<path d="M120.734 12.484H123.829V15.0313C124.385 14.1353 125.165 13.3991 126.091 12.8948C127.017 12.3905 128.058 12.1354 129.112 12.1546C133.056 12.1546 136.042 15.4142 136.042 20.0149C136.042 24.6156 133.112 27.8731 129.087 27.8731C128.039 27.894 127.004 27.6428 126.082 27.1438C125.161 26.6447 124.384 25.9151 123.829 25.0262V34.3902H120.734V12.484ZM132.926 20.0149C132.926 17.1381 131.065 15.1126 128.434 15.1126C125.803 15.1126 123.808 17.1381 123.808 20.0149C123.808 22.8917 125.806 24.915 128.434 24.915C131.063 24.915 132.919 22.9173 132.919 20.0149H132.926Z" fill="white"/>
</g>
<defs>
<clipPath id="clip0_3954_383">
<rect width="136.04" height="38.4995" fill="white" transform="translate(0 0.750244)"/>
</clipPath>
</defs>
</svg>
